<?xml version="1.0" encoding="UTF-8" standalone="no" ?>
<!DOCTYPE svg PUBLIC "-//W3C//DTD SVG 1.1//EN" "http://www.w3.org/Graphics/SVG/1.1/DTD/svg11.dtd">
<svg xmlns="http://www.w3.org/2000/svg" xmlns:xlink="http://www.w3.org/1999/xlink" version="1.1" width="200" height="160" viewBox="520 280 240 240" xml:space="preserve">
<desc>Created with Fabric.js 5.3.0</desc>
<defs>
</defs>
<g transform="matrix(1.9211538461538462 0 0 1.9211538461538462 640 413.3842609367149)" id="logo-logo">
<g style="" paint-order="stroke">
    <g transform="matrix(3.823538269955565 0 0 3.823538269955565 19.879172809415763 11.392232275332702)">
      <path style="stroke: none; stroke-width: 1; stroke-dasharray: none; stroke-linecap: butt; stroke-dashoffset: 0; stroke-linejoin: miter; stroke-miterlimit: 4; fill: rgb(47,84,204); fill-rule: evenodd; opacity: 1;" paint-order="stroke" transform=" translate(-454.326, -399.87749999999994)" d="M 447.937 397.635 C 447.937 397.635 450.906 395.476 454.562 393.399 C 454.562 393.399 462.32800000000003 385.176 459.171 374.959 C 459.171 374.959 458.839 379.61 452.858 385.84000000000003 C 446.878 392.07 447.937 397.635 447.937 397.635 L 447.937 397.635 z M 454.326 405.246 L 456.14300000000003 411.89099999999996 L 459.39200000000005 409.95699999999994 L 457.45700000000005 413.2049999999999 L 464.10100000000006 415.0229999999999 L 457.45700000000005 416.8389999999999 L 459.39200000000005 420.0869999999999 L 456.14300000000003 418.15299999999985 L 454.326 424.7959999999998 L 452.509 418.15299999999985 L 449.26 420.0869999999999 L 451.194 416.8389999999999 L 444.55100000000004 415.0229999999999 L 451.194 413.2049999999999 L 449.26 409.95699999999994 L 452.509 411.89099999999996 L 454.326 405.246 L 454.326 405.246 z" stroke-linecap="round" />
    </g>
    <g transform="matrix(3.823538269955565 0 0 3.823538269955565 0 -0.158676838202922)">
      <path style="stroke: none; stroke-width: 1; stroke-dasharray: none; stroke-linecap: butt; stroke-dashoffset: 0; stroke-linejoin: miter; stroke-miterlimit: 4; fill: rgb(64,104,236); fill-rule: evenodd; opacity: 1;" paint-order="stroke" transform=" translate(-449.12684377195296, -396.8565)" d="M 439.984 424.713 C 439.984 424.713 431.405 406.26800000000003 452.10999999999996 394.31300000000005 C 472.816 382.358 466.725 369 466.725 369 C 466.725 369 482.014 388 461.74600000000004 398.299 C 441.479 408.6 440.15 418.068 439.984 424.713 L 439.984 424.713 z M 442.604 386.67 C 444.989 387.851 446.628 390.309 446.628 393.15000000000003 C 446.628 397.141 443.393 400.377 439.402 400.377 C 435.411 400.377 432.175 397.141 432.175 393.15000000000003 C 432.175 391.052 432.721 390.927 431.656 388.60100000000006 L 426.431 389.36100000000005 C 426.001 389.42400000000004 425.87 389.196 426.139 388.8550000000001 L 431.879 381.58200000000005 C 432.148 381.2420000000001 432.718 380.91200000000003 433.148 380.85 L 442.317 379.516 C 442.746 379.454 442.877 379.68100000000004 442.609 380.021 L 436.86899999999997 387.295 C 436.59999999999997 387.635 436.03 387.96500000000003 435.59999999999997 388.02700000000004 L 434.039 388.254 L 434.039 388.254 C 435.736 388.403 436.496 388.488 437.441 387.343 C 438.09099999999995 386.555 439.09 385.295 439.65099999999995 384.583 C 440.828 386.05400000000003 441.96599999999995 386.51800000000003 441.96599999999995 386.51800000000003 C 440.27299999999997 389.45200000000006 437.91299999999995 390.571 437.91299999999995 390.571 C 437.91299999999995 390.571 437.71899999999994 390.70500000000004 437.35699999999997 390.89200000000005 L 437.35699999999997 390.89200000000005 C 440.525 389.756 442.169 387.382 442.604 386.67 L 442.604 386.67 z" stroke-linecap="round" />
    </g>
</g>
</g>
</svg>